<svg width="62.5" height="71" viewBox="0 0 62.5 71" xmlns="http://www.w3.org/2000/svg" xmlns:xlink="http://www.w3.org/1999/xlink" overflow="hidden"><defs></defs><g id="Capa_1-2-2_1_"><path d="M31.3 35.5 46.7 26.7 31.3 18 31.3 18 31.3 35.5Z" stroke="#05667C" stroke-linecap="round" stroke-linejoin="round" stroke-miterlimit="10" fill="none"/></g><g id="Capa_3_1_"><path d="M46.7 9.2 46.7 26.7 62 18 62 0.5Z" stroke="#05667C" stroke-linecap="round" stroke-linejoin="round" stroke-miterlimit="10" fill="none"/></g><g id="Capa_4_1_"><path d="M46.7 26.7 46.7 26.7 46.7 9.2 31.3 18Z" stroke="#05667C" stroke-linecap="round" stroke-linejoin="round" stroke-miterlimit="10" fill="none"/></g><g id="Capa_5_1_"><path d="M31.3 18 15.9 26.7 31.3 35.5Z" stroke="#05667C" stroke-linecap="round" stroke-linejoin="round" stroke-miterlimit="10" fill="none"/></g><g id="Capa_6_1_"><path d="M0.5 0.5 0.5 18 15.9 26.7 15.9 9.2Z" stroke="#05667C" stroke-linecap="round" stroke-linejoin="round" stroke-miterlimit="10" fill="none"/></g><g id="Capa_7_1_"><path d="M15.9 9.2 15.9 26.7 31.3 18Z" stroke="#05667C" stroke-linecap="round" stroke-linejoin="round" stroke-miterlimit="10" fill="none"/></g><g id="Capa_8_1_"><path d="M46.7 26.7 62 35.5 62 18 46.7 26.7Z" stroke="#05667C" stroke-linecap="round" stroke-linejoin="round" stroke-miterlimit="10" fill="none"/></g><g id="Capa_9_1_"><path d="M46.7 26.7 46.7 44.2 62 35.5 46.7 26.7Z" stroke="#05667C" stroke-linecap="round" stroke-linejoin="round" stroke-miterlimit="10" fill="none"/></g><g id="Capa_10_1_"><path d="M0.5 35.5 15.9 44.2 15.9 26.7Z" stroke="#05667C" stroke-linecap="round" stroke-linejoin="round" stroke-miterlimit="10" fill="none"/></g><g id="Capa_11_1_"><path d="M31.3 35.5 31.3 35.5 31.3 52.9 46.7 44.2 46.7 44.2Z" stroke="#05667C" stroke-linecap="round" stroke-linejoin="round" stroke-miterlimit="10" fill="none"/></g><g id="Capa_12_1_"><path d="M15.9 26.7 15.9 26.7 15.9 44.2 31.3 35.5 31.3 35.5Z" stroke="#05667C" stroke-linecap="round" stroke-linejoin="round" stroke-miterlimit="10" fill="none"/></g><g id="Capa_13_1_"><path d="M0.5 18 0.5 35.5 15.9 26.7Z" stroke="#05667C" stroke-linecap="round" stroke-linejoin="round" stroke-miterlimit="10" fill="none"/></g><g id="Capa_14_1_"><path d="M46.7 44.2 46.7 44.2 62 52.9 62 35.5Z" stroke="#05667C" stroke-linecap="round" stroke-linejoin="round" stroke-miterlimit="10" fill="none"/></g><g id="Capa_15_1_"><path d="M15.9 44.2 15.9 44.2 31.3 52.9 31.3 35.5Z" stroke="#05667C" stroke-linecap="round" stroke-linejoin="round" stroke-miterlimit="10" fill="none"/></g><g id="Capa_16_1_"><path d="M31.3 35.5 31.3 35.5 46.7 44.2 46.7 26.7Z" stroke="#05667C" stroke-linecap="round" stroke-linejoin="round" stroke-miterlimit="10" fill="none"/></g><g id="Capa_17_1_"><path d="M0.5 35.5 0.5 52.9 15.9 44.2Z" stroke="#05667C" stroke-linecap="round" stroke-linejoin="round" stroke-miterlimit="10" fill="none"/></g><g id="Capa_18_1_"><path d="M46.7 44.2 46.7 70.4 62 70.4 62 52.9Z" stroke="#05667C" stroke-linecap="round" stroke-linejoin="round" stroke-miterlimit="10" fill="none"/></g><path d="M15.9 44.2 0.5 52.9 0.5 70.5 15.9 70.5Z" stroke="#05667C" stroke-linecap="round" stroke-linejoin="round" stroke-miterlimit="10" fill="none"/></svg>